<?xml version="1.0" encoding="utf-8"?>
<!-- Generator: Adobe Illustrator 24.0.1, SVG Export Plug-In . SVG Version: 6.00 Build 0)  -->
<svg version="1.1" id="Layer_1" xmlns="http://www.w3.org/2000/svg" xmlns:xlink="http://www.w3.org/1999/xlink" x="0px" y="0px"
	 viewBox="0 0 631.4 833" style="enable-background:new 0 0 631.4 833;" xml:space="preserve">
<style type="text/css">
	.st0{fill:#EAEAEA;}
	.st1{opacity:6.000000e-02;fill:#FFFFFF;enable-background:new    ;}
	.st2{fill:#C2003A;}
	.st3{fill:#10191F;}
	.st4{fill:#28373D;}
	.st5{fill:#0EC0CB;}
	.st6{clip-path:url(#SVGID_2_);}
	.st7{display:none;clip-path:url(#SVGID_4_);}
	.st8{display:inline;fill:#28373D;}
	.st9{fill:#FFFFFF;}
	.st10{fill:#79C9EE;}
	.st11{fill:#EA2A54;}
	.st12{fill:#FF4C65;}
	.st13{fill:#E5435A;}
	.st14{fill:#AA023A;}
</style>
<ellipse class="st0" cx="300.9" cy="813" rx="266.4" ry="20"/>
<title>expert-web-designers-hero</title>
<g id="Layer_16">
	<polyline class="st1" points="14.9,223.2 270,58.9 427.8,278.4 221.3,358.6 94.4,365.5 14.9,235.8 12.8,224.3 	"/>
</g>
<g id="Layer_5">
	<path class="st2" d="M466.6,814.2V558.6c0-113.7-92.2-205.9-205.9-205.9S54.8,444.9,54.8,558.6v255.6L466.6,814.2L466.6,814.2z"/>
</g>
<polygon class="st3" points="266.8,467.9 282.4,712.8 631.4,687 614.9,444.8 "/>
<polygon class="st4" points="266.8,467.9 614.9,444.8 618.5,498.4 270.3,523.1 "/>
<polygon class="st5" points="315.6,555.4 323.9,657.6 409.5,549.8 "/>
<polygon class="st5" points="409.5,569.2 418.7,672.3 325.7,676.9 "/>
<polygon class="st5" points="434.4,563.6 596,553.5 594.1,535.6 432.5,546.6 "/>
<polygon class="st4" points="437.6,582.1 437.6,600.5 523.2,594.5 523.2,577 "/>
<circle class="st3" cx="295.8" cy="495.5" r="8.3"/>
<circle class="st3" cx="324.8" cy="494.1" r="8.3"/>
<circle class="st3" cx="352.4" cy="491.4" r="8.3"/>
<g>
	<g>
		<g>
			<g>
				<defs>
					<polygon id="SVGID_1_" points="195,704.2 187.8,814.6 537.7,814.3 543.7,713.6 					"/>
				</defs>
				<clipPath id="SVGID_2_">
					<use xlink:href="#SVGID_1_"  style="overflow:visible;"/>
				</clipPath>
				<g class="st6">
					<polygon class="st3" points="195,704.2 187.8,814.1 537.7,814.3 543.7,713.6 					"/>
				</g>
			</g>
		</g>
	</g>
</g>
<g>
	<g>
		<g>
			<g>
				<defs>
					<polygon id="SVGID_3_" points="195,704.2 187.8,814.6 537.7,814.3 543.7,713.6 					"/>
				</defs>
				<clipPath id="SVGID_4_">
					<use xlink:href="#SVGID_3_"  style="overflow:visible;"/>
				</clipPath>
				<g class="st7">
					<path class="st8" d="M145.3,852.7c0,0,37.8-72,106.5-54.7c0,0,63.1,15.3,105.1-6c0,0,35.5-14,79,5.3c0,0,47.7,18.7,79.5,4.7
						c0,0,31.8-24,74.9-5.3L615,864l-142.7,39.3L129,886L145.3,852.7z"/>
				</g>
			</g>
		</g>
	</g>
</g>
<polygon class="st4" points="195,704.2 543.7,713.6 540.4,745.3 193.4,737.5 "/>
<path class="st3" d="M221.8,722.1c-0.3,3.5-3.5,6.1-7,5.8s-6.1-3.5-5.8-7s3.5-6.1,7-5.8l0,0C219.5,715.5,222.1,718.6,221.8,722.1z"
	/>
<circle class="st3" cx="237.9" cy="722.6" r="6.4"/>
<path class="st3" d="M265.7,723c-0.3,3.5-3.5,6.1-7,5.8s-6.1-3.5-5.8-7s3.5-6.1,7-5.8l0,0C263.4,716.3,266,719.4,265.7,723
	C265.7,722.9,265.7,723,265.7,723z"/>
<path class="st3" d="M242,637.3l-80.2-196.6c0,0,223.3,49.7,252.3-3.7l-81-71.8c0,0-212.7,1.8-233.5,12.4c0,0-36.8,22.6-18.9,67.2
	c0,0,81,173.6,100.8,210L242,637.3z"/>
<path class="st9" d="M392.9,103.2c0,0-18-15.2-24.9-17.5l-23.5-47.9L275.4,41L262,48.4l7.8,10.1l4.1,53c0,0,11.1-5.1,11.5,0l35,10.6
	l23,6.4c0,0,11.1,23.9,11.5,28.1l37.8-29.5L392.9,103.2z"/>
<path class="st3" d="M369.4,63.6c0,0-5.5-64.9-48.3-56.2c0,0-37.5,11.1-48.9,11.9c-0.3,0.1-0.5,0.2-0.8,0.2c-0.2,0-0.4,0.1-0.6,0.1
	c-0.4,0.3-0.9,0.5-1.4,0.6c-4.9,2.8-19.5,12.6-16.4,29.6c0,0,0.5,17,22.1,10.1c0,0,43.7-7.8,52,1.6c0,0,10.1,23.2,3.7,30.6
	c0,0-6.4,8.7-44.7,18.9c0,0,14.7,30.4,24.9,29c0,0,30.4,2.8,35.9-15.7c0,0-1.4-19.3-6-32.2c0,0-7.3-37.3,6-35c0,0,12.9-1.4,6.9,26.7
	c0,0-3.7,15.7,24.9,6.9C378.6,90.8,369,76.5,369.4,63.6z"/>
<polygon class="st10" points="375,78.8 377.7,70.9 313.3,45.2 310.5,52.1 "/>
<polygon class="st9" points="313.3,45.2 303.6,45.2 310.5,52.1 "/>
<path class="st9" d="M339.7,84.7c0,0-4.7-22.1,3.7-27.1c0,0,18.2-5.9,10.4,26.3L339.7,84.7z"/>
<path class="st11" d="M414.1,437c0,0,56.2-23,48.3-174.5l-115.6,47.4c0,0-2.3,60.3-11.5,64.5L414.1,437z"/>
<path class="st12" d="M462.5,262.5c0,0-9.2-110-69.5-159.3c0,0-11.1,35.5-41.9,47.9c0,0,2.3,40.5-6,78.3c0,0-4.6,27.6-4.1,39.1
	l10.1,1.8c0,0-4,37.2-4.1,39.6l115.6-45.7"/>
<path class="st3" d="M14.9,222.9l77.4,135.4l-7.4,13.8l-77.4-135C7.5,237.1,3.4,228,14.9,222.9z"/>
<polygon class="st3" points="92.2,358.3 263.1,358.3 263.1,367.9 84.9,372.1 "/>
<path class="st9" d="M363.9,270.3l51.1,7c0,0-15.7,113.3-66.8,113.3c0,0-32.7,0.9-114.7-33.6c0,0-15.2-4.1-17-0.5
	c0,0-16.6,4.1-28.1-7.4c0,0-12.9-6-23.9,2.8c0,0-28.1,13.8-16.1-6c0,0,10.6-14.3,18.4-15.4c0,0,12.4-4.8,14.7-6.7
	c0,0,12.4-6.9,24.4-0.9c0,0,91.6,24.4,98.1,24.9c0,0,43.3,14.7,48.3-17.3C352.4,330.4,364.4,282.3,363.9,270.3z"/>
<path class="st3" d="M144.7,683.8c0,0,23-15.7,36.8-29l60.4-17.5l10.5,36.4l-29,14.5l-76,20.5l-9.7-15.7L144.7,683.8z"/>
<path class="st9" d="M144.7,683.8l5.5,15.7l102.2-25.8l3.2,12.9l-127.5,34.5c0,0-9.2,3.7-9.7-8.3
	C118.5,712.8,116.2,697.6,144.7,683.8z"/>
<polyline class="st3" points="254.8,683 253.8,678.8 205.5,691.7 203.2,697.7 254.8,684.7 "/>
<circle class="st5" cx="234.9" cy="766.6" r="15.6"/>
<polygon class="st5" points="403.5,765.1 271.1,762.5 271.1,755.3 403.5,757.9 "/>
<polygon class="st5" points="360.7,778.2 271.1,776.1 271.1,770.4 360.7,772.5 "/>
<g id="Layer_4">
	<circle class="st5" cx="240.9" cy="204.2" r="60.9"/>
	<circle class="st5" cx="60.9" cy="563.4" r="60.9"/>
	<circle class="st3" cx="511.3" cy="374.8" r="52"/>
	<circle class="st13" cx="188.4" cy="83.1" r="38.9"/>
	<circle class="st5" cx="496.8" cy="126.4" r="54.2"/>
</g>
<g id="Layer_8">
	<circle class="st14" cx="229.6" cy="6.9" r="6.9"/>
</g>
<g id="_Group_">
	<path id="_Compound_Path_" class="st9" d="M31.2,586.3h11c0.3,0,0.6-0.2,0.6-0.5l3.2-11.5h12.5l3.5,11.6c0.1,0.3,0.3,0.5,0.6,0.5
		h11.5c0.4,0,0.7-0.3,0.7-0.7l0,0c0-0.1,0-0.2-0.1-0.3l-14.6-47c-0.1-0.3-0.3-0.5-0.6-0.5h-14c-0.3,0-0.5,0.2-0.6,0.5l-14.4,47.1
		c-0.1,0.2,0,0.4,0.1,0.6C30.8,586.2,31,586.3,31.2,586.3z M56.7,565H48l2.6-9.2c0.5-1.6,0.9-3.6,1.3-5.5c0.1-0.4,0.2-0.9,0.3-1.3
		c0.6,2.3,1.2,4.7,1.8,6.8L56.7,565z"/>
	<path id="_Path_" class="st9" d="M79.7,550.9c-0.4,0-0.7,0.3-0.7,0.7l0,0v34.2c0,0.4,0.3,0.7,0.7,0.7l0,0h10.6
		c0.4,0,0.7-0.3,0.7-0.7l0,0v-34.2c0-0.4-0.3-0.7-0.7-0.7l0,0H79.7z"/>
	<path id="_Path_2" class="st9" d="M84.9,548c3.7,0,6.4-2.5,6.4-6c-0.3-3.6-3.3-6.2-6.9-6c-1.5,0.1-2.9,0.7-4,1.8
		c-2.1,2.4-2.1,6,0,8.4C81.6,547.4,83.2,548,84.9,548z"/>
</g>
<g id="_Group_2">
	<path id="_Compound_Path_2" class="st9" d="M224.5,231.8v-18.3c1,0.1,1.9,0.1,2.9,0.1c6.6,0,12-2,15.5-5.8
		c2.9-3.2,4.5-7.8,4.5-13.2c0.1-4.8-1.7-9.5-5.2-12.9c-3.2-3-8-4.4-14.5-4.4c-4.8-0.1-9.5,0.3-14.2,1.1c-0.3,0.1-0.5,0.4-0.5,0.7
		v52.7c0,0.4,0.2,0.7,0.6,0.7H224C224.3,232.5,224.5,232.2,224.5,231.8z M224.5,202.7v-14.6c1.2-0.2,2.5-0.3,3.7-0.3
		c4.8,0,7.5,2.6,7.5,7.1c0,5-3.1,8-8.3,8C226.4,203,225.5,202.9,224.5,202.7L224.5,202.7z"/>
	<path id="_Path_3" class="st9" d="M266.1,207.4c-4.3-1.7-5-2.5-5-3.7c0-2.1,2.1-2.4,3.3-2.4c2.5,0.1,4.9,0.8,7,2.1
		c0.2,0.1,0.4,0.1,0.6,0s0.3-0.3,0.4-0.5l1.9-8.3c0.1-0.3-0.1-0.7-0.3-0.9c-3-1.6-6.3-2.3-9.7-2.3c-8.4,0-14.3,5.5-14.3,13.4
		c-0.1,3.8,1.6,9.1,10,12.4c4.1,1.6,4.5,2.4,4.5,3.7c0,0.6,0,2.5-3.8,2.5c-3.1-0.2-6-1.1-8.6-2.8c-0.2-0.1-0.4-0.1-0.6-0.1
		c-0.2,0.1-0.3,0.3-0.4,0.5l-1.9,8.6c-0.1,0.3,0,0.6,0.3,0.8c3.4,1.9,7.2,2.9,11.1,2.8c9.4,0,15.2-5.1,15.2-13.3
		C275.6,213.9,272.7,210,266.1,207.4z"/>
</g>
<g id="_Group_3">
	<path id="_Path_4" class="st9" d="M471.7,149.8h9.7c0.3,0,0.6-0.3,0.6-0.6v-42.9c0-0.3-0.3-0.6-0.6-0.6h-9.7
		c-0.3,0-0.6,0.3-0.6,0.6v42.8C471.1,149.5,471.4,149.8,471.7,149.8z"/>
	<path id="_Compound_Path_3" class="st9" d="M500.9,150.5c3.6,0.1,7.1-1.5,9.4-4.3l0.3,3.1c0,0.3,0.3,0.5,0.6,0.5h8.6
		c0.3,0,0.6-0.3,0.6-0.6v-0.1c-0.1-2.1-0.2-5.7-0.2-9.2V104c0-0.3-0.3-0.6-0.6-0.6h-9.7c-0.3,0-0.6,0.3-0.6,0.6v15.4
		c-1.7-1.7-4.5-2.6-7.7-2.6c-3.7,0-7.2,1.4-9.8,4.1c-3.1,3.2-4.8,7.7-4.8,13.1C487,143.5,492.8,150.5,500.9,150.5z M504,141.6
		c-3.7,0-6-3.1-6-8c0-3.8,1.6-8.2,6.1-8.2c2.5,0,4.6,1.8,5.1,4.3c0.1,0.5,0.1,1.1,0.1,1.6v4.1c0,0.7-0.1,1.4-0.2,2.1l0,0
		C508.6,139.9,506.4,141.6,504,141.6z"/>
</g>
<path class="st9" d="M525.2,395h-13.8v-34.3h12.7c0.6,0.1,1.2,0.2,1.8,0.3c5.1,1,8.8,3.9,10.9,9.3c0.6,1.8,1.1,3.6,1.2,5.5v4.4
	c-0.1,0.5-0.1,1-0.2,1.5c-0.9,5.6-3.6,9.8-8.3,12.1C528.1,394.4,526.7,394.8,525.2,395z M518.7,377.9v9.2c0,0.6,0.2,0.9,0.8,0.8h3.8
	c2.8,0,5.4-1.8,6.4-4.4c1.5-3.3,1.6-7.1,0.4-10.5c-0.7-2.7-3-4.7-5.8-5.1c-1.6-0.1-3.1-0.2-4.7-0.1c-0.8,0-0.9,0.1-0.9,1
	C518.7,371.9,518.7,374.9,518.7,377.9z"/>
<path class="st9" d="M488.6,395h-7.8c0.1-0.4,0.2-0.7,0.5-1c3.1-5.1,6.1-10.2,9.2-15.3c0.3-0.4,0.3-1,0-1.4c-2-3.2-3.9-6.4-5.8-9.6
	l-4.2-6.9c-0.1-0.5,0.2-0.3,0.4-0.3h7.4c0.2,0.3,0.4,0.7,0.5,1c1.9,3.3,3.7,6.6,5.6,10c0.5,0.8,0.5,0.8,0.9,0
	c2-3.6,4.1-7.2,6.1-10.9h7.7c0,0.4-0.2,0.7-0.4,1c-3.2,5.3-6.4,10.6-9.6,15.8c-0.3,0.4-0.3,1,0,1.4c3.3,5.4,6.5,10.8,9.8,16.2h-7.8
	c-1.9-3.4-3.8-6.9-5.8-10.3c-0.4-0.8-0.5-0.8-0.9,0c-0.6,1.1-1.2,2.2-1.9,3.4L488.6,395z"/>
</svg>
